<svg data-v-423bf9ae="" xmlns="http://www.w3.org/2000/svg" viewBox="0 0 401.9341844963183 60" class="font"><!----><!----><!----><g data-v-423bf9ae="" id="5c78c7fb-c05d-4172-9149-10e820ad25c7" fill="black" transform="matrix(5.982053428958114,0,0,5.982053428958114,0.29910028931027455,-43.84845213154283)"><path d="M7.52 7.35L7.60 7.44L7.60 8.11L7.49 8.22Q6.72 8.18 6.10 8.15Q5.48 8.11 5.24 8.10Q4.99 8.09 4.82 8.08Q4.66 8.07 4.55 8.07L4.55 8.07Q4.48 8.07 4.45 8.23Q4.41 8.39 4.39 8.81Q4.38 9.24 4.37 9.57Q4.37 9.91 4.37 10.65L4.37 10.65Q4.37 10.86 4.37 10.96L4.37 10.96Q4.37 13.58 4.55 16.85L4.55 16.85L3.15 17.23L3.02 17.10Q3.21 14.10 3.21 11.77L3.21 11.77Q3.21 9.02 3.18 8.18L3.18 8.18Q3.18 8.10 3.05 8.10L3.05 8.10Q2.97 8.10 0.05 8.20L0.05 8.20L-0.05 8.10L-0.05 7.43L0.04 7.33Q0.31 7.34 1.35 7.41Q2.39 7.49 3.85 7.49L3.85 7.49Q4.44 7.49 7.52 7.35L7.52 7.35ZM12.61 11.66L11.85 12.35L11.68 12.27Q11.62 11.93 11.44 11.70Q11.27 11.46 10.94 11.46L10.94 11.46Q10.55 11.46 10.28 11.72Q10.01 11.98 9.86 12.33L9.86 12.33Q9.78 12.54 9.75 12.91Q9.73 13.28 9.75 13.94Q9.77 14.59 9.77 14.71L9.77 14.71Q9.77 15.77 9.81 16.84L9.81 16.84L8.83 17.13L8.62 17.01Q8.78 15.05 8.78 13.69L8.78 13.69Q8.78 13.62 8.78 13.50L8.78 13.50Q8.78 13.23 8.78 13.10Q8.78 12.97 8.78 12.73Q8.77 12.48 8.75 12.35Q8.74 12.21 8.71 12.02Q8.69 11.83 8.64 11.73Q8.59 11.63 8.53 11.52Q8.47 11.41 8.38 11.36Q8.29 11.32 8.18 11.32L8.18 11.32Q7.86 11.32 7.09 11.76L7.09 11.76L6.92 11.52Q7.35 11.18 7.56 11.03Q7.77 10.87 8.16 10.67Q8.54 10.47 8.81 10.47L8.81 10.47Q9.68 10.47 9.82 11.48L9.82 11.48L9.96 11.53Q10.97 10.55 11.50 10.55L11.50 10.55Q12.50 10.55 12.61 11.66L12.61 11.66ZM14.44 11.55L14.44 11.55Q14.06 11.95 13.93 12.41Q13.79 12.87 13.79 13.45L13.79 13.45Q13.79 13.54 13.82 13.70L13.82 13.70L13.88 13.76L16.71 12.64Q16.88 12.58 16.88 12.27L16.88 12.27Q16.88 11.79 16.53 11.38Q16.17 10.96 15.61 10.96L15.61 10.96Q14.92 10.96 14.44 11.55ZM17.79 12.63L17.79 12.63L13.85 14.33Q13.88 14.69 14.00 15.02Q14.11 15.35 14.31 15.65Q14.52 15.95 14.86 16.13Q15.21 16.30 15.65 16.30L15.65 16.30Q16.59 16.30 17.81 15.35L17.81 15.35L17.96 15.38L18.15 15.63Q16.41 17.26 14.96 17.26L14.96 17.26Q14.42 17.26 14 17.06Q13.58 16.86 13.33 16.55Q13.08 16.23 12.92 15.78Q12.76 15.33 12.69 14.88Q12.63 14.44 12.63 13.92L12.63 13.92Q12.63 12.48 13.34 11.66L13.34 11.66Q13.86 11.05 14.58 10.73Q15.31 10.40 16.11 10.40L16.11 10.40Q16.99 10.40 17.54 10.95Q18.09 11.50 18.09 12.33L18.09 12.33Q18.09 12.41 18.04 12.47Q17.99 12.53 17.95 12.55Q17.90 12.58 17.79 12.63ZM20.73 16.84L20.73 16.84L19.75 17.17L19.54 17.08Q19.67 13.88 19.67 12.92L19.67 12.92Q19.67 12.10 19.57 11.70Q19.47 11.31 19.15 11.31L19.15 11.31Q19.01 11.31 18.83 11.38Q18.64 11.46 18.50 11.54Q18.35 11.63 18.10 11.80L18.10 11.80L17.86 11.49Q18.28 11.19 18.52 11.03Q18.75 10.86 19.13 10.68Q19.51 10.49 19.75 10.49L19.75 10.49Q20.23 10.49 20.46 10.75Q20.69 11.01 20.76 11.45L20.76 11.45L20.87 11.53Q21.63 11.07 22.27 10.80Q22.91 10.52 23.52 10.52L23.52 10.52Q24.24 10.52 24.60 10.93L24.60 10.93Q24.73 11.09 24.79 11.59Q24.86 12.09 24.87 12.48Q24.88 12.86 24.88 13.51L24.88 13.51Q24.88 15.17 24.89 15.34L24.89 15.34Q24.92 16.00 25.16 16.15L25.16 16.15Q25.30 16.25 25.55 16.25L25.55 16.25Q25.94 16.25 26.67 15.69L26.67 15.69L26.85 15.69L26.97 15.98Q26.44 16.51 25.84 16.87Q25.25 17.23 24.77 17.23L24.77 17.23Q23.77 17.23 23.77 16.00L23.77 16.00L23.84 13.60Q23.84 12.48 23.56 11.91Q23.28 11.35 22.58 11.35L22.58 11.35Q21.85 11.35 20.77 12.20L20.77 12.20Q20.69 14.38 20.69 15.46L20.69 15.46Q20.69 15.86 20.73 16.84ZM30.32 8.16L30.30 7.85L30.37 7.79L32.66 7.51L32.77 7.64L32.77 15.55Q32.80 15.93 32.91 16.18Q33.02 16.42 33.30 16.42L33.30 16.42Q33.47 16.42 34.15 16.15L34.15 16.15L34.27 16.47Q33.85 16.76 33.65 16.89Q33.45 17.02 33.08 17.19Q32.72 17.36 32.46 17.36L32.46 17.36Q32.08 17.36 31.87 17.05Q31.66 16.75 31.64 16.33L31.64 16.33Q30.17 17.34 29.20 17.34L29.20 17.34Q28.63 17.34 28.21 17.09Q27.78 16.84 27.55 16.42Q27.32 16.00 27.22 15.53Q27.11 15.07 27.11 14.57L27.11 14.57Q27.11 13.97 27.24 13.40Q27.36 12.84 27.63 12.33Q27.90 11.83 28.28 11.45Q28.66 11.07 29.22 10.85Q29.77 10.62 30.43 10.62L30.43 10.62Q30.95 10.62 31.60 10.83L31.60 10.83L31.69 10.77Q31.69 10.62 31.69 10.31Q31.68 10.00 31.68 9.80Q31.68 9.60 31.67 9.35Q31.66 9.11 31.64 8.94Q31.62 8.76 31.60 8.66L31.60 8.66Q31.54 8.49 31.40 8.38Q31.27 8.26 31.06 8.22Q30.85 8.18 30.70 8.17Q30.55 8.16 30.32 8.16L30.32 8.16ZM31.64 15.76L31.64 15.76L31.69 12.75Q31.69 12.49 31.67 12.28Q31.64 12.07 31.56 11.84Q31.48 11.61 31.34 11.45Q31.20 11.30 30.95 11.20Q30.71 11.09 30.37 11.09L30.37 11.09Q30.00 11.09 29.68 11.23Q29.36 11.38 29.15 11.62Q28.93 11.87 28.77 12.17Q28.60 12.48 28.51 12.84Q28.42 13.21 28.37 13.55Q28.33 13.90 28.33 14.25L28.33 14.25Q28.33 14.64 28.41 15.00Q28.50 15.37 28.68 15.70Q28.86 16.02 29.20 16.22Q29.53 16.42 29.98 16.42L29.98 16.42Q30.37 16.42 30.86 16.23Q31.36 16.03 31.64 15.76ZM43.29 7.35L43.37 7.44L43.37 8.11L43.26 8.22Q42.49 8.18 41.87 8.15Q41.25 8.11 41.00 8.10Q40.76 8.09 40.59 8.08Q40.42 8.07 40.32 8.07L40.32 8.07Q40.25 8.07 40.21 8.23Q40.17 8.39 40.16 8.81Q40.14 9.24 40.14 9.57Q40.13 9.91 40.13 10.65L40.13 10.65Q40.13 10.86 40.13 10.96L40.13 10.96Q40.13 13.58 40.32 16.85L40.32 16.85L38.92 17.23L38.79 17.10Q38.97 14.10 38.97 11.77L38.97 11.77Q38.97 9.02 38.94 8.18L38.94 8.18Q38.94 8.10 38.81 8.10L38.81 8.10Q38.73 8.10 35.82 8.20L35.82 8.20L35.71 8.10L35.71 7.43L35.81 7.33Q36.07 7.34 37.12 7.41Q38.16 7.49 39.61 7.49L39.61 7.49Q40.21 7.49 43.29 7.35L43.29 7.35ZM48.37 11.66L47.62 12.35L47.45 12.27Q47.39 11.93 47.21 11.70Q47.03 11.46 46.71 11.46L46.71 11.46Q46.32 11.46 46.05 11.72Q45.77 11.98 45.63 12.33L45.63 12.33Q45.54 12.54 45.52 12.91Q45.49 13.28 45.51 13.94Q45.53 14.59 45.53 14.71L45.53 14.71Q45.53 15.77 45.58 16.84L45.58 16.84L44.59 17.13L44.39 17.01Q44.55 15.05 44.55 13.69L44.55 13.69Q44.55 13.62 44.55 13.50L44.55 13.50Q44.55 13.23 44.55 13.10Q44.55 12.97 44.54 12.73Q44.54 12.48 44.52 12.35Q44.50 12.21 44.48 12.02Q44.45 11.83 44.41 11.73Q44.36 11.63 44.30 11.52Q44.24 11.41 44.15 11.36Q44.06 11.32 43.95 11.32L43.95 11.32Q43.63 11.32 42.85 11.76L42.85 11.76L42.69 11.52Q43.11 11.18 43.33 11.03Q43.54 10.87 43.92 10.67Q44.31 10.47 44.58 10.47L44.58 10.47Q45.45 10.47 45.59 11.48L45.59 11.48L45.73 11.53Q46.74 10.55 47.27 10.55L47.27 10.55Q48.27 10.55 48.37 11.66L48.37 11.66ZM49.68 12.67L49.68 12.67Q49.57 13.13 49.57 13.75L49.57 13.75Q49.57 14.14 49.62 14.51Q49.67 14.89 49.80 15.30Q49.94 15.71 50.14 16.01Q50.34 16.32 50.68 16.52Q51.02 16.71 51.46 16.71Q51.90 16.71 52.23 16.54Q52.56 16.37 52.76 16.10Q52.96 15.83 53.08 15.46Q53.20 15.09 53.25 14.74Q53.29 14.39 53.29 14.01L53.29 14.01Q53.29 13.62 53.26 13.26Q53.22 12.91 53.10 12.50Q52.98 12.10 52.78 11.81Q52.59 11.52 52.24 11.32Q51.90 11.13 51.45 11.13L51.45 11.13Q50.85 11.13 50.36 11.53Q49.87 11.92 49.68 12.67ZM51.08 17.29L51.08 17.29Q50.39 17.29 49.86 17.04Q49.34 16.80 49.03 16.37Q48.73 15.94 48.57 15.44Q48.41 14.94 48.37 14.35L48.37 14.35Q48.37 13.47 48.52 12.79Q48.68 12.11 49.14 11.61L49.14 11.61Q49.61 11.09 50.30 10.84Q51.00 10.58 51.77 10.58L51.77 10.58Q52.51 10.58 53.06 10.85Q53.62 11.12 53.93 11.58Q54.24 12.04 54.39 12.59Q54.54 13.13 54.54 13.75L54.54 13.75Q54.54 15.36 53.73 16.26L53.73 16.26Q53.27 16.79 52.57 17.04Q51.88 17.29 51.08 17.29ZM59.68 11.14L60.39 10.65Q60.43 10.62 60.50 10.62L60.50 10.62Q60.72 10.62 60.93 11.04Q61.14 11.45 61.14 12.02L61.14 12.02Q61.14 12.55 60.94 13.05Q60.74 13.54 60.38 14.12L60.38 14.12Q59.58 15.39 58.15 16.85L58.15 16.85Q57.78 17.21 57.73 17.25L57.73 17.25L57.39 17.25L56.42 13.63Q56.13 12.56 55.88 11.97Q55.62 11.38 55.33 11.38L55.33 11.38Q54.96 11.38 54.45 11.67L54.45 11.67L54.33 11.33Q54.66 11.10 54.90 10.95Q55.13 10.81 55.48 10.66Q55.82 10.52 56.08 10.52L56.08 10.52Q56.31 10.52 56.49 10.66Q56.67 10.80 56.81 11.12Q56.95 11.44 57.05 11.78Q57.16 12.12 57.30 12.69L57.30 12.69Q57.31 12.76 57.32 12.79Q57.33 12.82 57.35 12.88Q57.36 12.94 57.37 12.99L57.37 12.99Q57.40 13.10 57.52 13.60Q57.64 14.10 57.72 14.41Q57.80 14.72 57.92 15.12Q58.04 15.52 58.15 15.73Q58.25 15.94 58.33 15.94L58.33 15.94Q58.36 15.94 58.41 15.89Q58.47 15.85 58.55 15.75Q58.64 15.66 58.67 15.63L58.67 15.63Q60.16 13.86 60.16 12.72L60.16 12.72Q60.16 12.51 60.07 12.23Q59.97 11.95 59.90 11.81Q59.83 11.67 59.64 11.32L59.64 11.32Q59.63 11.31 59.63 11.25Q59.63 11.20 59.68 11.14L59.68 11.14ZM63.42 11.55L63.42 11.55Q63.05 11.95 62.91 12.41Q62.78 12.87 62.78 13.45L62.78 13.45Q62.78 13.54 62.81 13.70L62.81 13.70L62.86 13.76L65.69 12.64Q65.87 12.58 65.87 12.27L65.87 12.27Q65.87 11.79 65.51 11.38Q65.15 10.96 64.60 10.96L64.60 10.96Q63.90 10.96 63.42 11.55ZM66.78 12.63L66.78 12.63L62.84 14.33Q62.87 14.69 62.98 15.02Q63.10 15.35 63.30 15.65Q63.51 15.95 63.85 16.13Q64.20 16.30 64.64 16.30L64.64 16.30Q65.58 16.30 66.79 15.35L66.79 15.35L66.95 15.38L67.14 15.63Q65.40 17.26 63.94 17.26L63.94 17.26Q63.40 17.26 62.99 17.06Q62.57 16.86 62.32 16.55Q62.06 16.23 61.90 15.78Q61.74 15.33 61.68 14.88Q61.62 14.44 61.62 13.92L61.62 13.92Q61.62 12.48 62.33 11.66L62.33 11.66Q62.84 11.05 63.57 10.73Q64.29 10.40 65.09 10.40L65.09 10.40Q65.98 10.40 66.53 10.95Q67.07 11.50 67.07 12.33L67.07 12.33Q67.07 12.41 67.03 12.47Q66.98 12.53 66.93 12.55Q66.89 12.58 66.78 12.63Z"></path></g><!----><!----></svg>